# xmcd
# 
# Track frame offsets:
#     150
#     16467
#     32856
#     50550
#     65922
#     80161
#     96131
#     118210
#     139087
#     152455
#     165179
# 
# Disc length: 2741
# 
# Revision: 2
# Processed by: cddbd v1.5.2PL0 Copyright (c) Steve Scherf et al.
# Submitted via: BonkEnc v1.0
# 
DISCID=920ab30b
DTITLE=Michal Łanuszka - Bieski idiota
DYEAR=2009
DGENRE=Ballad
TTITLE0=Bieski idiota
TTITLE1=Miasto wygnancow
TTITLE2=Zza weneckiego lustra
TTITLE3=Im bardziej jasno
TTITLE4=Koszulka
TTITLE5=Niezly zawodnik
TTITLE6=Kobra
TTITLE7=Sarajewo
TTITLE8=Margot
TTITLE9=Kosovo
TTITLE10=Nie wierze
EXTD=
EXTT0=
EXTT1=
EXTT2=
EXTT3=
EXTT4=
EXTT5=
EXTT6=
EXTT7=
EXTT8=
EXTT9=
EXTT10=
PLAYORDER=
